<svg width="42" height="42" viewBox="0 0 42 42" fill="none" xmlns="http://www.w3.org/2000/svg">
<g clip-path="url(#clip0_1_8)">
<path fill-rule="evenodd" clip-rule="evenodd" d="M21 42C32.598 42 42 32.598 42 21C42 9.402 32.598 0 21 0C9.402 0 0 9.402 0 21C0 32.598 9.402 42 21 42ZM23.1272 21C23.1272 22.3942 22.0099 23.5245 20.6316 23.5245C19.2533 23.5245 18.1359 22.3942 18.1359 21C18.1359 19.6058 19.2533 18.4755 20.6316 18.4755C22.0099 18.4755 23.1272 19.6058 23.1272 21ZM8.67882 19.4097C8.07216 19.9637 7.81302 20.5018 7.81302 21C7.81302 21.4982 8.07216 22.0363 8.67882 22.5903C9.28578 23.1445 10.1958 23.6699 11.3689 24.123C11.829 24.3007 12.3251 24.4656 12.853 24.6158C13.2055 23.46 13.6684 22.243 14.2348 21C13.6684 19.757 13.2055 18.54 12.853 17.3842C12.3251 17.5344 11.829 17.6993 11.3689 17.877C10.1958 18.3301 9.28578 18.8555 8.67882 19.4097ZM14.8896 22.3571C14.5227 23.2313 14.2128 24.0833 13.9617 24.8989C14.7856 25.0867 15.67 25.2412 16.6021 25.3568C16.2974 24.8778 15.9992 24.3833 15.709 23.8749C15.4199 23.3683 15.1466 22.8617 14.8896 22.3571ZM10.9561 25.1915C11.4515 25.3828 11.9827 25.5592 12.5452 25.7191C12.401 26.2912 12.2866 26.8441 12.2028 27.3731C11.9912 28.7089 11.9701 29.9233 12.1808 30.92C12.3915 31.9165 12.8508 32.7607 13.652 33.2287C14.4532 33.6966 15.4057 33.6768 16.3641 33.3632C17.3228 33.0494 18.3519 32.4236 19.3897 31.5704C19.7998 31.2334 20.2149 30.8576 20.6316 30.4465C21.0483 30.8576 21.4634 31.2334 21.8734 31.5704C22.9112 32.4236 23.9403 33.0494 24.899 33.3632C25.8575 33.6768 26.8099 33.6966 27.6111 33.2287C28.4123 32.7607 28.8716 31.9165 29.0823 30.92C29.2931 29.9233 29.2719 28.7089 29.0603 27.3731C28.9766 26.8441 28.8621 26.2912 28.7179 25.7192C29.2805 25.5592 29.8117 25.3828 30.307 25.1915C31.5574 24.7086 32.6084 24.1195 33.3567 23.4362C34.1054 22.7525 34.5956 21.9301 34.5956 21C34.5956 20.0699 34.1054 19.2475 33.3567 18.5638C32.6084 17.8805 31.5574 17.2914 30.307 16.8085C29.8117 16.6172 29.2805 16.4408 28.7179 16.2809C28.8621 15.7088 28.9765 15.1559 29.0603 14.6269C29.2719 13.2911 29.2931 12.0767 29.0823 11.08C28.8716 10.0835 28.4123 9.23928 27.6111 8.77134C26.8099 8.3034 25.8575 8.3232 24.899 8.63682C23.9403 8.95056 22.9112 9.57636 21.8734 10.4296C21.4634 10.7666 21.0483 11.1424 20.6316 11.5535C20.2149 11.1424 19.7998 10.7666 19.3897 10.4296C18.3519 9.57636 17.3228 8.95056 16.3641 8.63682C15.4057 8.3232 14.4532 8.3034 13.652 8.77134C12.8508 9.23928 12.3915 10.0835 12.1808 11.08C11.9701 12.0767 11.9912 13.2911 12.2028 14.6269C12.2866 15.1559 12.401 15.7088 12.5452 16.2809C11.9827 16.4408 11.4515 16.6172 10.9561 16.8085C9.70584 17.2914 8.65476 17.8805 7.90644 18.5638C7.15782 19.2475 6.66756 20.0699 6.66756 21C6.66756 21.9301 7.15782 22.7525 7.90644 23.4362C8.65476 24.1195 9.70584 24.7086 10.9561 25.1915ZM18.6665 30.6773C19.0502 30.3618 19.441 30.0082 19.835 29.6191C19.0215 28.7317 18.2108 27.7171 17.4295 26.5986C16.0856 26.4735 14.8153 26.2711 13.6519 26.003C13.5153 26.5443 13.4075 27.0649 13.3291 27.5601C13.1303 28.8153 13.1251 29.8762 13.2962 30.6854C13.4674 31.4951 13.7983 31.9876 14.2198 32.2339C14.6414 32.48 15.2285 32.5236 16.0073 32.2688C16.7857 32.014 17.6914 31.4791 18.6665 30.6773ZM22.5967 30.6773C22.2129 30.3618 21.8222 30.0082 21.4281 29.6191C22.2416 28.7317 23.0524 27.7171 23.8336 26.5986C25.1776 26.4735 26.4478 26.2711 27.6113 26.003C27.7478 26.5443 27.8557 27.0649 27.9341 27.5601C28.1329 28.8153 28.1381 29.8762 27.967 30.6854C27.7958 31.4951 27.4649 31.9876 27.0433 32.2339C26.6218 32.48 26.0347 32.5236 25.2559 32.2688C24.4775 32.014 23.5718 31.4791 22.5967 30.6773ZM20.6316 28.7892C21.2045 28.1609 21.7793 27.4628 22.3445 26.7036C21.7828 26.7308 21.2111 26.7449 20.6316 26.7449C20.052 26.7449 19.4803 26.7308 18.9187 26.7036C19.4839 27.4628 20.0586 28.1609 20.6316 28.7892ZM20.6316 25.5994C21.5104 25.5994 22.3675 25.5662 23.1953 25.5031C23.6651 24.8071 24.124 24.07 24.565 23.2972C25.005 22.5263 25.4057 21.7577 25.766 21C25.4057 20.2423 25.005 19.4737 24.565 18.7028C24.124 17.93 23.6651 17.1929 23.1953 16.4969C22.3675 16.4338 21.5104 16.4006 20.6316 16.4006C19.7528 16.4006 18.8956 16.4338 18.0679 16.4969C17.5981 17.1929 17.1392 17.93 16.6981 18.7028C16.2581 19.4736 15.8575 20.2423 15.4972 21C15.8575 21.7577 16.2581 22.5263 16.6981 23.2972C17.1392 24.07 17.5981 24.8071 18.0679 25.5031C18.8956 25.5662 19.7528 25.5994 20.6316 25.5994ZM27.3015 24.8989C26.4776 25.0867 25.5932 25.2412 24.6611 25.3568C24.9657 24.8779 25.264 24.3833 25.5542 23.8749C25.8433 23.3683 26.1166 22.8617 26.3735 22.3571C26.7404 23.2313 27.0503 24.0833 27.3015 24.8989ZM28.4102 24.6158C28.0576 23.46 27.5948 22.243 27.0284 21C27.5948 19.7569 28.0576 18.54 28.4102 17.3842C28.938 17.5344 29.4341 17.6993 29.8943 17.877C31.0673 18.3301 31.9774 18.8555 32.5843 19.4097C33.191 19.9637 33.4502 20.5018 33.4502 21C33.4502 21.4982 33.191 22.0363 32.5843 22.5903C31.9774 23.1445 31.0673 23.6699 29.8943 24.123C29.4341 24.3007 28.938 24.4656 28.4102 24.6158ZM27.9341 14.4399C27.8557 14.9351 27.7478 15.4557 27.6113 15.997C26.4478 15.7289 25.1776 15.5265 23.8336 15.4014C23.0524 14.2829 22.2416 13.2683 21.4281 12.3809C21.8222 11.9918 22.2129 11.6381 22.5967 11.3227C23.5718 10.5209 24.4775 9.98598 25.2559 9.73122C26.0347 9.4764 26.6218 9.51996 27.0433 9.76614C27.4649 10.0124 27.7958 10.5049 27.967 11.3146C28.1381 12.1238 28.1329 13.1847 27.9341 14.4399ZM18.6665 11.3227C19.0502 11.6381 19.441 11.9918 19.835 12.3809C19.0215 13.2683 18.2108 14.2829 17.4295 15.4014C16.0856 15.5265 14.8153 15.7289 13.6519 15.997C13.5153 15.4557 13.4075 14.9351 13.3291 14.4399C13.1303 13.1847 13.1251 12.1238 13.2962 11.3146C13.4674 10.5049 13.7983 10.0124 14.2198 9.76614C14.6414 9.51996 15.2285 9.4764 16.0073 9.73122C16.7857 9.98598 17.6914 10.5209 18.6665 11.3227ZM20.6316 13.2108C20.0586 13.8391 19.4839 14.5372 18.9187 15.2964C19.4803 15.2692 20.052 15.2551 20.6316 15.2551C21.2111 15.2551 21.7828 15.2692 22.3445 15.2964C21.7793 14.5372 21.2045 13.8391 20.6316 13.2108ZM13.9617 17.1011C14.7856 16.9133 15.67 16.7588 16.6021 16.6432C16.2974 17.1222 15.9992 17.6167 15.709 18.1251C15.4199 18.6317 15.1466 19.1383 14.8896 19.6429C14.5227 18.7687 14.2128 17.9167 13.9617 17.1011ZM26.3735 19.6429C26.7404 18.7687 27.0503 17.9167 27.3015 17.1011C26.4776 16.9133 25.5932 16.7588 24.6611 16.6432C24.9657 17.1222 25.264 17.6167 25.5542 18.1251C25.8433 18.6317 26.1166 19.1383 26.3735 19.6429ZM40.2316 21C40.2316 23.6077 39.7126 26.0941 38.7723 28.3616L37.5471 27.8536L36.322 27.3455C37.1311 25.3944 37.579 23.2529 37.579 21C37.579 18.7471 37.1311 16.6056 36.322 14.6545L37.5471 14.1464L38.7723 13.6384C39.7126 15.9059 40.2316 18.3923 40.2316 21ZM27.8536 37.5471L28.3616 38.7723C26.0941 39.7126 23.6077 40.2316 21 40.2316C18.3923 40.2316 15.9059 39.7126 13.6384 38.7723L14.1464 37.5471L14.6545 36.322C16.6056 37.1311 18.7471 37.579 21 37.579C23.2529 37.579 25.3944 37.1311 27.3455 36.322L27.8536 37.5471ZM1.76842 21C1.76842 23.6077 2.28741 26.0941 3.22772 28.3616L4.45288 27.8536L5.67803 27.3455C4.86893 25.3944 4.42105 23.2529 4.42105 21C4.42105 18.7471 4.86894 16.6056 5.67803 14.6545L4.45288 14.1464L3.22772 13.6384C2.28741 15.9059 1.76842 18.3923 1.76842 21ZM14.1464 4.45288L13.6384 3.22772C15.9059 2.28741 18.3923 1.76842 21 1.76842C23.6077 1.76842 26.0941 2.28741 28.3616 3.22772L27.8536 4.45288L27.3455 5.67803C25.3944 4.86894 23.2529 4.42105 21 4.42105C18.7471 4.42105 16.6056 4.86893 14.6545 5.67803L14.1464 4.45288Z" fill="white"/>
</g>
<defs>
<clipPath id="clip0_1_8">
<rect width="42" height="42" fill="white"/>
</clipPath>
</defs>
</svg>
